REM MD5 b34afcf59784f0e0df4f6d375c7cb935
FILE "Euro Demo 02-99 Rennspiele (Germany).bin" BINARY
  TRACK 01 MODE2/2352
    INDEX 01 00:00:00
  TRACK 02 AUDIO
    INDEX 00 31:39:27
    INDEX 01 31:41:27
  TRACK 03 AUDIO
    INDEX 00 33:28:11
    INDEX 01 33:30:11
  TRACK 04 AUDIO
    INDEX 00 38:39:30
    INDEX 01 38:41:30
  TRACK 05 AUDIO
    INDEX 00 38:53:03
    INDEX 01 38:55:03
REM LEADOUT 41:56:35
